# xmcd CD database file
#
# Track frame offsets:
#	150
#	20591
#	47189
#	68089
#	93103
#	115937
#
# Disc length: 1716 seconds
#
# Revision: 0
# Processed by: cddbd v1.5.1PL0 Copyright (c) Steve Scherf et al.
# Submitted via: CDex 1.50
#
DISCID=4706b206
DTITLE=東風 - 春夏秋冬
DYEAR=1900
DGENRE=J-Pop
TTITLE0=春夏秋冬
TTITLE1=太陽（てぃだ）
TTITLE2=島のどこかで
TTITLE3=ハイビスカスの花
TTITLE4=三三五五
TTITLE5=沖縄ダンス
EXTD=
EXTT0=
EXTT1=
EXTT2=
EXTT3=
EXTT4=
EXTT5=
PLAYORDER=
